Coordinates
version=1
nRows=31
nColumns=38
inDegrees=no

Units are S.I. units (second, meters, Newtons, ...)
If the header above contains a line with 'inDegrees', this indicates whether rotational values are in degrees (yes) or radians (no).

endheader
time	pelvis_tilt	pelvis_list	pelvis_rotation	pelvis_tx	pelvis_ty	pelvis_tz	hip_flexion_r	hip_adduction_r	hip_rotation_r	knee_angle_r	ankle_angle_r	subtalar_angle_r	mtp_angle_r	hip_flexion_l	hip_adduction_l	hip_rotation_l	knee_angle_l	ankle_angle_l	subtalar_angle_l	mtp_angle_l	lumbar_extension	lumbar_bending	lumbar_rotation	arm_flex_r	arm_add_r	arm_rot_r	elbow_flex_r	pro_sup_r	wrist_flex_r	wrist_dev_r	arm_flex_l	arm_add_l	arm_rot_l	elbow_flex_l	pro_sup_l	wrist_flex_l	wrist_dev_l
0	0.0384417	1.17984	-1.33348	0.403198	1.82875	1.08458	-0.0385961	0.0848603	-0.141919	0.384026	-0.250946	0	0	-0.404256	-0.245451	-0.0893623	0.958536	-0.334014	0	0	-0.511821	0.181274	-0.218831	0.681205	-0.481497	0.726455	1.10883	0.513007	0	0	0.356588	-0.540665	0.15178	1.15462	0.71932	0	0
0.01	0.0395066	1.18091	-1.33717	0.402739	1.81768	1.08574	-0.041098	0.0849459	-0.146851	0.396752	-0.254859	0	0	-0.374204	-0.25032	-0.0803868	1.01259	-0.376999	0	0	-0.511657	0.176255	-0.211676	0.676755	-0.482558	0.720851	1.10769	0.509785	0	0	0.364981	-0.539769	0.161612	1.1482	0.71401	0	0
0.02	0.0483719	1.17525	-1.34987	0.40209	1.80643	1.08782	-0.0551538	0.083215	-0.155954	0.403498	-0.256823	0	0	-0.362815	-0.244505	-0.0575725	1.04256	-0.399169	0	0	-0.520786	0.171417	-0.209728	0.679498	-0.47958	0.722317	1.1071	0.509707	0	0	0.364045	-0.542958	0.159358	1.15	0.712572	0	0
0.03	0.0458729	1.17964	-1.35387	0.401538	1.79388	1.08889	-0.0590209	0.0843815	-0.159709	0.4093	-0.257677	0	0	-0.33481	-0.245905	-0.0489536	1.08467	-0.416787	0	0	-0.514106	0.164183	-0.200168	0.6725	-0.481604	0.720148	1.10484	0.508059	0	0	0.367123	-0.538399	0.164221	1.14327	0.713345	0	0
0.04	0.0454775	1.18063	-1.35955	0.400976	1.78184	1.09004	-0.0660936	0.0856217	-0.1632	0.416197	-0.254761	0	0	-0.309652	-0.247679	-0.0417595	1.12221	-0.449291	0	0	-0.513405	0.15937	-0.192965	0.668722	-0.483234	0.717712	1.10727	0.507929	0	0	0.367634	-0.537834	0.166591	1.14198	0.710776	0	0
0.05	0.0477998	1.18156	-1.36721	0.4005	1.77005	1.09125	-0.0734944	0.0859468	-0.167239	0.422886	-0.250991	0	0	-0.283976	-0.246292	-0.0301098	1.15569	-0.47485	0	0	-0.513078	0.153845	-0.18778	0.666995	-0.483801	0.717707	1.10839	0.507429	0	0	0.366877	-0.538452	0.167549	1.14199	0.709113	0	0
0.06	0.0522423	1.18311	-1.37686	0.400062	1.75835	1.09246	-0.0805615	0.0852366	-0.16953	0.429542	-0.245536	0	0	-0.25882	-0.243158	-0.0177759	1.18292	-0.498492	0	0	-0.512185	0.147294	-0.18322	0.665304	-0.483762	0.717514	1.10883	0.506915	0	0	0.366272	-0.539607	0.169339	1.14188	0.708724	0	0
0.07	0.058854	1.18495	-1.38755	0.399858	1.74677	1.09379	-0.0883817	0.0837746	-0.16952	0.434355	-0.237087	0	0	-0.233794	-0.238118	-0.00481096	1.20608	-0.51759	0	0	-0.511184	0.14027	-0.179372	0.660208	-0.481806	0.709891	1.10916	0.516847	0	0	0.366793	-0.5403	0.172446	1.14105	0.708649	0	0
0.08	0.0653174	1.18508	-1.3967	0.399926	1.73533	1.09541	-0.0985982	0.0817766	-0.173836	0.438646	-0.229863	0	0	-0.211698	-0.232809	0.00846866	1.22812	-0.504083	0	0	-0.511568	0.134648	-0.17814	0.660738	-0.480932	0.712484	1.10788	0.513361	0	0	0.364495	-0.540495	0.170846	1.14183	0.703445	0	0
0.09	0.0734931	1.1839	-1.40727	0.40016	1.72408	1.09743	-0.112365	0.0793945	-0.176486	0.438351	-0.228289	0	0	-0.191404	-0.227764	0.0170454	1.24674	-0.492807	0	0	-0.513981	0.128624	-0.176415	0.660162	-0.480255	0.712318	1.1071	0.512094	0	0	0.363019	-0.540011	0.168915	1.14227	0.702407	0	0
0.1	0.082691	1.18334	-1.41937	0.400467	1.71294	1.09952	-0.126156	0.0765486	-0.17599	0.437126	-0.223626	0	0	-0.170829	-0.221766	0.0213645	1.26284	-0.459894	0	0	-0.515753	0.12191	-0.174555	0.659561	-0.478686	0.711541	1.10486	0.512529	0	0	0.362362	-0.540186	0.169254	1.14161	0.702791	0	0
0.11	0.0918129	1.18321	-1.43227	0.400748	1.70196	1.10164	-0.139287	0.0734756	-0.174635	0.436551	-0.218485	0	0	-0.150102	-0.214889	0.0222178	1.27464	-0.424589	0	0	-0.517073	0.114475	-0.171105	0.658131	-0.47719	0.709073	1.10193	0.514282	0	0	0.363515	-0.539295	0.170965	1.13927	0.704908	0	0
0.12	0.0993929	1.18387	-1.44422	0.40104	1.69115	1.1037	-0.152121	0.0712346	-0.172318	0.434021	-0.21409	0	0	-0.128593	-0.208151	0.020873	1.28202	-0.395602	0	0	-0.518025	0.10753	-0.167132	0.656844	-0.475498	0.705779	1.09904	0.516359	0	0	0.364478	-0.537802	0.171683	1.13727	0.706005	0	0
0.13	0.107114	1.18472	-1.45518	0.401784	1.68049	1.1057	-0.164374	0.0678757	-0.176793	0.430635	-0.211329	0	0	-0.107284	-0.200915	0.0195569	1.28561	-0.365785	0	0	-0.518815	0.101684	-0.164492	0.655932	-0.474203	0.702503	1.09665	0.519364	0	0	0.365039	-0.535702	0.171535	1.13546	0.706659	0	0
0.14	0.115103	1.18596	-1.46663	0.402616	1.66991	1.1076	-0.175804	0.0637838	-0.184464	0.426202	-0.210883	0	0	-0.0869858	-0.193724	0.0160503	1.28576	-0.324205	0	0	-0.519732	0.0957027	-0.161031	0.650541	-0.470957	0.689063	1.09541	0.539392	0	0	0.366392	-0.533077	0.171676	1.13366	0.70852	0	0
0.15	0.124287	1.187	-1.48005	0.403447	1.65943	1.10944	-0.187698	0.0591778	-0.190874	0.421382	-0.211354	0	0	-0.0682519	-0.186668	0.00872513	1.28094	-0.297155	0	0	-0.520806	0.0894084	-0.15821	0.652293	-0.471248	0.69054	1.09386	0.537739	0	0	0.366642	-0.531071	0.170787	1.13228	0.708658	0	0
0.16	0.134401	1.1884	-1.4946	0.404323	1.64901	1.11115	-0.199309	0.0542972	-0.195549	0.417783	-0.20997	0	0	-0.0506306	-0.179372	-0.000444586	1.27153	-0.267003	0	0	-0.521809	0.0828693	-0.155411	0.653228	-0.471337	0.690137	1.09328	0.538387	0	0	0.366499	-0.529003	0.169215	1.13162	0.707849	0	0
0.17	0.14487	1.18966	-1.50957	0.405147	1.63869	1.11272	-0.210587	0.0493803	-0.198836	0.416074	-0.205992	0	0	-0.0341039	-0.172531	-0.0113047	1.25696	-0.240512	0	0	-0.52302	0.0758794	-0.152012	0.653417	-0.471715	0.688317	1.09338	0.539849	0	0	0.367387	-0.527126	0.168778	1.13098	0.705865	0	0
0.18	0.154579	1.19096	-1.52422	0.405766	1.6284	1.1141	-0.221299	0.0446868	-0.201343	0.414199	-0.202357	0	0	-0.0184576	-0.167103	-0.0244137	1.23717	-0.221149	0	0	-0.524164	0.0687188	-0.148081	0.653811	-0.472001	0.686836	1.09353	0.541276	0	0	0.368541	-0.526472	0.169182	1.13065	0.705369	0	0
0.19	0.163548	1.19255	-1.53851	0.406237	1.61814	1.11523	-0.231818	0.0408941	-0.199555	0.411016	-0.198678	0	0	-0.00356479	-0.162785	-0.0390283	1.21256	-0.205941	0	0	-0.524913	0.0615005	-0.143799	0.654273	-0.47208	0.685357	1.09373	0.542962	0	0	0.369638	-0.526698	0.170029	1.13071	0.70612	0	0
0.2	0.17361	1.19419	-1.55229	0.407111	1.60792	1.11616	-0.242498	0.0367455	-0.198414	0.407781	-0.194594	0	0	0.0105003	-0.157887	-0.052726	1.18362	-0.195137	0	0	-0.525177	0.0549937	-0.141246	0.654788	-0.472471	0.684128	1.0943	0.544707	0	0	0.370146	-0.526514	0.170167	1.13115	0.706237	0	0
0.21	0.183369	1.19668	-1.56506	0.408178	1.59766	1.11679	-0.251906	0.0328725	-0.197754	0.405846	-0.187325	0	0	0.0244478	-0.153531	-0.0667933	1.15113	-0.18855	0	0	-0.524508	0.049067	-0.138805	0.651799	-0.471281	0.675361	1.09552	0.558672	0	0	0.370793	-0.525739	0.170508	1.13205	0.704275	0	0
0.22	0.190668	1.19934	-1.57526	0.409328	1.58743	1.11712	-0.261397	0.0302531	-0.195843	0.403808	-0.177543	0	0	0.0373211	-0.150352	-0.0808733	1.1157	-0.185767	0	0	-0.522908	0.0446271	-0.137698	0.656595	-0.473466	0.682992	1.09541	0.549484	0	0	0.369547	-0.525496	0.168853	1.13342	0.703605	0	0
0.23	0.196157	1.20156	-1.58324	0.41058	1.57726	1.11729	-0.271797	0.0285477	-0.192851	0.400466	-0.170107	0	0	0.0480123	-0.147195	-0.0931593	1.07636	-0.182571	0	0	-0.521796	0.0409646	-0.136262	0.658744	-0.474162	0.684179	1.09549	0.550047	0	0	0.369305	-0.526023	0.169295	1.13474	0.704937	0	0
0.24	0.200211	1.20357	-1.58939	0.411993	1.56717	1.11729	-0.282389	0.0272259	-0.189973	0.397266	-0.163553	0	0	0.0567926	-0.143654	-0.103384	1.03348	-0.178826	0	0	-0.520754	0.0383207	-0.135012	0.661206	-0.474903	0.685223	1.0954	0.551305	0	0	0.369171	-0.525833	0.169174	1.13596	0.705549	0	0
0.25	0.20273	1.20596	-1.59383	0.413557	1.55705	1.11705	-0.292292	0.026479	-0.187718	0.39488	-0.157332	0	0	0.0643579	-0.139785	-0.111972	0.987557	-0.175536	0	0	-0.519248	0.0366688	-0.133704	0.663595	-0.475923	0.685899	1.0956	0.553054	0	0	0.36866	-0.525014	0.168156	1.13747	0.705393	0	0
0.26	0.20403	1.20875	-1.59698	0.415265	1.54689	1.11663	-0.301512	0.025947	-0.185881	0.392648	-0.154562	0	0	0.0705732	-0.135546	-0.118728	0.938786	-0.170968	0	0	-0.517209	0.035755	-0.132281	0.666776	-0.477908	0.688466	1.09603	0.550872	0	0	0.368002	-0.523878	0.167278	1.13901	0.704642	0	0
0.27	0.204498	1.21195	-1.59922	0.417101	1.53672	1.11603	-0.310125	0.0254729	-0.182668	0.391341	-0.147224	0	0	0.0755933	-0.130745	-0.123117	0.887364	-0.169766	0	0	-0.514759	0.0353732	-0.130841	0.669364	-0.479334	0.689318	1.09608	0.551831	0	0	0.367115	-0.521959	0.165476	1.14053	0.705054	0	0
0.28	0.204518	1.21576	-1.60076	0.41906	1.52652	1.11522	-0.31798	0.0252936	-0.178354	0.391239	-0.136996	0	0	0.0799113	-0.1253	-0.125365	0.833843	-0.170343	0	0	-0.51176	0.035306	-0.129052	0.668469	-0.479068	0.682592	1.09635	0.564332	0	0	0.366409	-0.51881	0.162865	1.14188	0.705734	0	0
0.29	0.203641	1.21954	-1.60089	0.421181	1.51635	1.11421	-0.324929	0.0248979	-0.175939	0.391685	-0.131064	0	0	0.0831207	-0.119452	-0.125387	0.779144	-0.166665	0	0	-0.508638	0.0358584	-0.127744	0.6719	-0.48191	0.685572	1.0967	0.560931	0	0	0.36606	-0.515979	0.161156	1.14312	0.705927	0	0
0.3	0.20349	1.22333	-1.60078	0.423463	1.50627	1.11309	-0.3311	0.0239557	-0.176329	0.393672	-0.124817	0	0	0.0846858	-0.112193	-0.121552	0.72144	-0.161527	0	0	-0.505897	0.0364558	-0.127135	0.674825	-0.48441	0.686954	1.09723	0.560842	0	0	0.366501	-0.514012	0.160876	1.14448	0.707723	0	0
